<svg width="635" height="56" viewBox="0 0 635 56" fill="none" xmlns="http://www.w3.org/2000/svg">
<path d="M28.0615 56C35.7415 56 42.2695 53.312 47.7415 47.84L42.0775 42.272C38.2375 46.112 33.6295 48.032 28.1575 48.032C22.6855 48.032 17.9815 46.112 14.1415 42.176C10.2055 38.336 8.2855 33.632 8.2855 28.16C8.2855 22.688 10.2055 18.08 14.1415 14.144C17.9815 10.304 22.6855 8.384 28.1575 8.384C33.6295 8.384 38.2375 10.304 42.0775 14.24L47.7415 8.576C42.2695 3.104 35.7415 0.415995 28.0615 0.415995C25.0855 0.415995 22.1095 0.896 19.3255 1.856C16.5415 2.816 13.9495 4.16 11.7415 5.792C9.4375 7.52 7.4215 9.536 5.6935 11.744C3.9655 14.048 2.6215 16.64 1.7575 19.424C0.7975 22.304 0.3175 25.28 0.3175 28.256C0.3175 35.936 3.0055 42.464 8.4775 47.84C13.8535 53.312 20.3815 56 28.0615 56ZM53.4738 56H61.4418V46.112V31.808V31.712V31.52V31.328V31.232V31.136C61.5378 29.312 62.1138 27.584 63.1698 26.048C64.2258 24.608 65.6658 23.456 67.3938 22.784V14.528C64.8018 15.008 62.4018 16.064 60.2898 17.696C58.1778 19.328 56.5458 21.344 55.2978 23.744C54.0498 26.144 53.4738 28.736 53.4738 31.52V56ZM93.9933 56C98.6013 56 102.729 54.656 106.377 51.872L100.713 46.112C98.6973 47.36 96.3933 48.032 93.9933 48.032C92.1693 48.032 90.4413 47.648 88.8093 46.88C87.1773 46.208 85.7373 45.152 84.5853 43.808C83.3373 42.56 82.4733 41.024 81.8973 39.392H114.345C114.633 37.952 114.825 36.608 114.825 35.168C114.825 29.408 112.809 24.512 108.777 20.384C104.649 16.352 99.7533 14.336 93.9933 14.336C88.2333 14.336 83.3373 16.352 79.3053 20.384C75.1773 24.512 73.1613 29.408 73.1613 35.168C73.1613 40.928 75.1773 45.824 79.3053 49.856C83.3373 53.984 88.2333 56 93.9933 56ZM81.7053 31.52C82.4733 28.832 84.0093 26.624 86.3133 24.896C88.5213 23.168 91.1133 22.304 93.9933 22.304C95.4333 22.304 96.7773 22.496 98.1213 22.976C99.4653 23.456 100.713 24.032 101.769 24.896C102.825 25.76 103.689 26.72 104.553 27.776C105.321 28.928 105.897 30.176 106.281 31.52H81.7053ZM141.431 56C146.231 56 150.551 54.464 154.295 51.488V56H162.263V14.336H154.295V18.848C150.551 15.872 146.231 14.336 141.431 14.336C135.671 14.336 130.775 16.352 126.743 20.384C122.615 24.512 120.599 29.408 120.599 35.168C120.599 40.928 122.615 45.824 126.743 49.856C130.775 53.984 135.671 56 141.431 56ZM141.431 48.032C137.879 48.032 134.903 46.784 132.407 44.192C129.815 41.696 128.567 38.72 128.567 35.168C128.567 31.616 129.815 28.64 132.407 26.048C134.903 23.552 137.879 22.304 141.431 22.304C144.983 22.304 147.959 23.552 150.551 26.048C153.047 28.64 154.295 31.616 154.295 35.168C154.295 37.472 153.719 39.584 152.567 41.6C151.415 43.616 149.879 45.152 147.863 46.304C145.847 47.456 143.735 48.032 141.431 48.032ZM177.828 56H185.892V22.304H195.78V14.336H185.892V0.415995H177.924V14.336H168.036V22.304H177.828V56ZM201.599 56H209.567V14.336H201.599V56ZM205.535 8.384C206.303 8.384 206.975 8.192 207.647 7.808C208.223 7.52 208.703 7.04 209.087 6.368C209.375 5.792 209.567 5.12 209.567 4.448C209.567 3.392 209.183 2.432 208.415 1.568C207.647 0.799995 206.687 0.415995 205.631 0.415995C204.479 0.415995 203.519 0.799995 202.751 1.568C201.983 2.432 201.599 3.392 201.599 4.448C201.599 5.504 201.983 6.464 202.751 7.232C203.519 8 204.479 8.384 205.535 8.384ZM238.747 56L259.195 14.336H250.363L238.747 37.952L227.131 14.336H218.299L238.747 56ZM278.212 56C282.82 56 286.948 54.656 290.596 51.872L284.932 46.112C282.916 47.36 280.612 48.032 278.212 48.032C276.388 48.032 274.66 47.648 273.028 46.88C271.396 46.208 269.956 45.152 268.804 43.808C267.556 42.56 266.692 41.024 266.116 39.392H298.564C298.852 37.952 299.044 36.608 299.044 35.168C299.044 29.408 297.028 24.512 292.996 20.384C288.868 16.352 283.972 14.336 278.212 14.336C272.452 14.336 267.556 16.352 263.524 20.384C259.396 24.512 257.38 29.408 257.38 35.168C257.38 40.928 259.396 45.824 263.524 49.856C267.556 53.984 272.452 56 278.212 56ZM265.924 31.52C266.692 28.832 268.228 26.624 270.532 24.896C272.74 23.168 275.332 22.304 278.212 22.304C279.652 22.304 280.996 22.496 282.34 22.976C283.684 23.456 284.932 24.032 285.988 24.896C287.044 25.76 287.908 26.72 288.772 27.776C289.54 28.928 290.116 30.176 290.5 31.52H265.924ZM326.286 56H334.254V24.32L340.014 32L358.062 56L381.87 24.224V55.904H389.646V0.511999L381.87 10.976L358.062 42.752L326.286 0.415995V56ZM416.306 56C421.106 56 425.426 54.464 429.17 51.488V56H437.138V14.336H429.17V18.848C425.426 15.872 421.106 14.336 416.306 14.336C410.546 14.336 405.65 16.352 401.618 20.384C397.49 24.512 395.474 29.408 395.474 35.168C395.474 40.928 397.49 45.824 401.618 49.856C405.65 53.984 410.546 56 416.306 56ZM416.306 48.032C412.754 48.032 409.778 46.784 407.282 44.192C404.69 41.696 403.442 38.72 403.442 35.168C403.442 31.616 404.69 28.64 407.282 26.048C409.778 23.552 412.754 22.304 416.306 22.304C419.858 22.304 422.834 23.552 425.426 26.048C427.922 28.64 429.17 31.616 429.17 35.168C429.17 37.472 428.594 39.584 427.442 41.6C426.29 43.616 424.754 45.152 422.738 46.304C420.722 47.456 418.61 48.032 416.306 48.032ZM463.743 56C469.503 56 474.399 53.984 478.431 49.856L472.863 44.288C470.271 46.784 467.295 48.032 463.743 48.032C460.191 48.032 457.215 46.784 454.719 44.192C452.127 41.696 450.879 38.72 450.879 35.168C450.879 31.616 452.127 28.64 454.719 26.048C457.215 23.552 460.191 22.304 463.743 22.304C467.295 22.304 470.271 23.552 472.863 26.048L478.431 20.48C474.399 16.352 469.503 14.336 463.743 14.336C457.983 14.336 453.087 16.352 449.055 20.384C444.927 24.512 442.911 29.408 442.911 35.168C442.911 40.928 444.927 45.824 449.055 49.856C453.087 53.984 457.983 56 463.743 56ZM484.255 56H492.223V35.168C492.223 31.616 493.471 28.64 496.063 26.048C498.559 23.552 501.535 22.304 505.087 22.304C508.639 22.304 511.615 23.552 514.207 26.048C516.703 28.64 517.951 31.616 517.951 35.168V56H525.919V35.168C525.919 29.408 523.903 24.512 519.871 20.384C515.743 16.352 510.847 14.336 505.087 14.336C500.287 14.336 495.967 15.872 492.223 18.848V0.415995H484.255V56ZM531.786 56H539.754V14.336H531.786V56ZM535.722 8.384C536.49 8.384 537.162 8.192 537.834 7.808C538.41 7.52 538.89 7.04 539.274 6.368C539.562 5.792 539.754 5.12 539.754 4.448C539.754 3.392 539.37 2.432 538.602 1.568C537.834 0.799995 536.874 0.415995 535.818 0.415995C534.666 0.415995 533.706 0.799995 532.938 1.568C532.17 2.432 531.786 3.392 531.786 4.448C531.786 5.504 532.17 6.464 532.938 7.232C533.706 8 534.666 8.384 535.722 8.384ZM545.474 56H553.442V35.168C553.442 31.616 554.69 28.64 557.282 26.048C559.778 23.552 562.754 22.304 566.306 22.304C569.858 22.304 572.834 23.552 575.426 26.048C577.922 28.64 579.17 31.616 579.17 35.168V56H587.138V35.168C587.138 31.424 586.178 27.872 584.354 24.704C582.53 21.536 579.938 18.944 576.77 17.12C573.602 15.296 570.05 14.336 566.306 14.336C560.546 14.336 555.65 16.352 551.618 20.384C547.49 24.512 545.474 29.408 545.474 35.168V56ZM613.837 56C618.445 56 622.573 54.656 626.221 51.872L620.557 46.112C618.541 47.36 616.237 48.032 613.837 48.032C612.013 48.032 610.285 47.648 608.653 46.88C607.021 46.208 605.581 45.152 604.429 43.808C603.181 42.56 602.317 41.024 601.741 39.392H634.189C634.477 37.952 634.669 36.608 634.669 35.168C634.669 29.408 632.653 24.512 628.621 20.384C624.493 16.352 619.597 14.336 613.837 14.336C608.077 14.336 603.181 16.352 599.149 20.384C595.021 24.512 593.005 29.408 593.005 35.168C593.005 40.928 595.021 45.824 599.149 49.856C603.181 53.984 608.077 56 613.837 56ZM601.549 31.52C602.317 28.832 603.853 26.624 606.157 24.896C608.365 23.168 610.957 22.304 613.837 22.304C615.277 22.304 616.621 22.496 617.965 22.976C619.309 23.456 620.557 24.032 621.613 24.896C622.669 25.76 623.533 26.72 624.397 27.776C625.165 28.928 625.741 30.176 626.125 31.52H601.549Z" fill="black"/>
</svg>
